<?xml version="1.0" standalone="no"?><!DOCTYPE svg PUBLIC "-//W3C//DTD SVG 1.1//EN" "http://www.w3.org/Graphics/SVG/1.1/DTD/svg11.dtd"><svg t="1536821675816" class="icon" style="" viewBox="0 0 1024 1024" version="1.1" xmlns="http://www.w3.org/2000/svg" p-id="531" xmlns:xlink="http://www.w3.org/1999/xlink" width="200" height="200"><defs><style type="text/css"></style></defs><path d="M417.186587 487.75583c10.17678-4.90266 531.473517-4.728698 541.483498 3.013637-4.588505 0.683569-9.174963 1.949398-13.765515 1.960655-54.508451 0.13917-109.016903 0.105401-163.526377 0.090051-117.022227-0.034792-234.043431-0.067538-351.065657-0.202615-4.475941-0.005117-8.950859-1.058099-13.426801-1.622964C416.987043 489.916029 417.086303 488.836441 417.186587 487.75583z" p-id="532" fill="#1296db"></path><path d="M574.754253 437.508425c-4.65502 1.76418-9.357112 5.163603-13.95892 5.034666-39.160905-1.102101-78.333066-2.384303-117.428479-4.78805-7.745405-0.475837-15.842827-5.008061-22.558785-9.495258-5.932106-3.963265-6.15314-10.896164 0.453325-15.149025 6.613628-4.257977 13.734816-8.886391 21.22951-10.400884 24.454972-4.940522 49.067532-9.561773 73.840752-12.334933 21.516036-2.408863 43.328831-2.334161 65.021899-2.831488 3.056616-0.070608 6.181793 2.845815 9.275247 4.379751-3.180436 1.679245-6.226818 4.462638-9.561773 4.864798-27.494191 3.316535-55.07127 5.957689-82.551134 9.386788-5.863545 0.731664-11.82021 3.164063-16.975627 6.130627-2.65855 1.529843-5.205559 6.096858-4.939499 9.031701 0.246617 2.724041 3.926426 6.675026 6.748704 7.348362 9.549493 2.278903 19.36914 4.465708 29.120224 4.630461 18.560728 0.313132 37.143968-0.867764 55.721069-1.208525 2.082428-0.037862 4.190439 1.347694 6.287193 2.074242C574.570058 435.289897 574.662155 436.399161 574.754253 437.508425z" p-id="533" fill="#1296db"></path><path d="M618.910938 398.469294c-6.919597-2.953262-16.606213 1.459235-14.254655-10.982122 10.958586 0.893346 17.179264-5.526877 24.382317-12.918217 4.891404-5.019317 15.22168-4.737908 24.428366-7.173376 0.584308 7.617491 0.949628 12.367679 1.382487 18.007119 6.727215 0 13.450337-0.74906 19.881816 0.298805 3.50687 0.571005 6.51846 4.188392 9.753131 6.431479-3.27765 1.562589-6.443759 4.084015-9.856485 4.480035-6.28617 0.728594-12.716626 0.207731-19.710924 0.207731 0 11.535731 0 21.98778 0 33.869389 9.727549 1.200338 19.261693 2.376117 28.832675 3.557012 3.650133 8.949836-3.257184 9.42772-8.511861 9.528004-10.54824 0.202615-21.113877-0.660032-31.67542-0.983397-17.652032-0.540306-24.736381-7.79657-24.65554-25.348318C618.935498 411.035494 618.910938 404.626527 618.910938 398.469294z" p-id="534" fill="#1296db"></path><path d="M791.400454 404.202878c-11.865235 0.443092-22.871917 3.2623-34.384112-3.092431-13.537318-7.472182-24.240077-0.284479-24.235984 14.824637 0.002047 8.353248 0 19.775392 0 29.020964-11.446703 0-22.269189 0-34.042327 0 0-17.684778 0-38.404682 0-58.379619 11.484565 0.681522 22.944572 1.692548 34.420951 1.914606 6.636141 0.127913 13.290701-1.37737 19.949354-1.49812 8.627495-0.156566 17.384949-0.471744 25.865087 0.781806C786.897907 388.946406 791.036157 394.766972 791.400454 404.202878z" p-id="535" fill="#1296db"></path><path d="M836.104609 444.48021c-11.43954 0-21.977547 0-33.17354 0 0-13.427824 0-28.479635 0-42.211381 11.226692 0 21.673625 0 33.17354 0C836.104609 415.578973 836.104609 430.90196 836.104609 444.48021z" p-id="536" fill="#1296db"></path><path d="M820.374346 353.342514c9.382695-0.062422 19.35993 10.520611 19.240203 20.408819-0.12382 10.264784-10.134825 20.821211-19.966751 21.055548-10.425444 0.248663-18.925025-9.116635-19.066241-21.007453C800.432155 361.248577 808.001551 353.425402 820.374346 353.342514z" p-id="537" fill="#1296db"></path><path d="M332.538699 565.572126c-5.367241-2.939959-8.461719-5.339612-8.317433-12.551874 0.185218-9.30083-17.288758-22.433942-24.495904-19.989263-15.4509 5.240351-20.461007 11.285021-19.553335 27.733645 1.278109 23.171746-5.395894 42.574654-21.533432 59.623959-21.228487 22.426779-63.754023 25.465998-85.042885 9.016351-18.865673-14.576997-25.740244-36.361139-26.656103-59.517535-0.523933-13.248745 1.217734-26.586518 1.939165-39.884382-13.679557 25.358551-13.999852 51.312666-4.558829 77.725222 9.280364 25.965371 28.380374 43.818995 50.055023 59.621912-34.135448-10.1645-55.837726-33.319873-65.722864-66.128093-14.422478-47.866171 5.330402-94.560656 48.601928-118.757754 5.013177-2.803859 11.758812-2.509147 17.702174-3.651157-1.194198 4.807493-2.64627 9.56996-3.491521 14.437827-0.546446 3.14769-1.483794 7.594979 0.097214 9.356089 1.553379 1.730411 6.362918 1.76111 9.233292 0.87902 15.402805-4.730745 24.467251-16.387225 30.196743-30.535457 6.110161-15.089673 17.144472-23.51967 32.332383-27.761274 12.592806-3.517103 25.055652-7.496741 38.70758-11.612479-23.588231-14.562671-23.588231-14.562671-22.918989-23.271006 3.025916 2.405793 5.602601 4.488221 8.214079 6.526647 11.521404 8.991792 24.664749 13.658068 39.140439 11.920494 7.568373-0.908696 17.166985-2.512217 17.050328-13.1853-0.11154-10.147104-8.994861-11.919471-16.808828-13.914918-1.078565-0.275269-2.296299-0.236384-3.415796-0.085958-7.28901 0.973164-10.743692-2.39863-13.161764-9.272177-11.629875-33.062-44.584428-42.583864-72.161506-38.298258-30.283724 4.706185-58.071603 16.785292-82.931804 35.317367-3.989871 2.974751-10.339486 4.366448-15.425318 4.009314-19.943215-1.39886-38.787398 1.227967-55.402821 12.961196-10.734482 7.580652-19.281135 16.963347-20.260439 34.1948 7.850805-2.657526 13.340843-5.538133 19.070334-6.139837 4.773723-0.50142 11.226692 0.201591 14.304797 3.133364 2.37407 2.260483 1.456165 8.969279 0.542352 13.399171-0.813528 3.942799-3.654226 7.459902-5.560646 11.184737-32.311917 63.111386-19.200294 137.101541 32.06223 180.821275 43.800575 37.356816 93.666286 44.354184 147.149385 27.26804 38.380122-12.261255 62.782905-38.71679 70.874187-78.930677C344.501148 580.705801 342.700129 571.137889 332.538699 565.572126zM261.363659 379.801119c-4.756327 8.118911-6.776334 15.788591 6.750751 21.328771-12.016685 2.405793-17.007349-1.087774-18.171871-10.027377C248.999051 383.859551 252.633834 380.232954 261.363659 379.801119z" p-id="538" fill="#1296db" data-spm-anchor-id="a313x.7781069.0.i2"></path><path d="M651.015124 620.908432l-0.164752-9.471722c-8.549723 0-19.146059 0-27.483958 0 0-5.182023 0-9.113565 0-13.960966 9.16166 0 18.436908 0 27.715225 0 0.047072 0.182149 0.008186-10.3006 0.008186-10.3006-26.812669 1.336438-29.913287 0.833995-26.504654-12.076036 7.997138 0 17.264199 0 26.056446 0l0.037862-7.212262c-8.718569-1.538029-18.621103-2.625804-27.676339-3.849678 0-3.675716 0-7.303336 0-12.208043 9.111518 0 17.447371 0 27.697829 0l0-10.282181c-5.841032 0.170892-18.876929 0-27.202549 0-2.601244-16.832364-16.135492-10.038634-24.965601-11.452843-6.736425-1.079588-16.564257-3.586688-15.607466 10.102079-9.662057 0-17.821901 0-26.345018 0 0.522909-3.63683 0.939395-6.534833 1.356904-9.434883-24.606421-3.576455-42.164309 5.502317-43.463907 24.39255-1.481747 21.537526-0.342808 43.255153-0.342808 66.043159C558.26265 621.197004 607.710852 621.292172 651.015124 620.908432zM554.421158 552.441061c9.221012 0 18.510586 0 28.620851 0 0 4.263094 0 8.148587 0 11.922541C559.657416 568.419987 553.390689 565.904701 554.421158 552.441061zM582.758554 585.431429c-25.794479 5.441942-29.197996 4.344958-27.855418-8.979512C579.900459 572.676941 583.738881 573.914118 582.758554 585.431429zM554.039465 598.602404c9.56996 0 18.827811 0 29.424146 0 0 4.045129 0 7.731078 0 12.383028-9.750061 0-19.315928 0-29.424146 0C554.039465 606.958722 554.039465 603.303472 554.039465 598.602404z" p-id="539" fill="#1296db"></path><path d="M505.999332 596.745103c-5.941316 1.417279-13.796214 5.873778-20.298302 7.42511 0-7.478322 0-16.480346 0-24.24724 3.287883 0 17.350157 0.61603 19.71911-0.138146l0.00307-10.124592c-6.919597-0.233314-20.856004-2.527566-20.421098-9.506515 0.449231-7.207146-0.118704-14.58723-0.994654-21.718651-0.320295-2.606361-4.652973-6.693446-8.106632-6.683213l-24.511253 0.159636c-0.36839 0.002047-4.327562 36.242436-4.327562 36.242436l-27.042913 1.795902-0.166799 9.748015 2.788509-0.091074c0 0 16.32378-0.735757 23.48897-0.735757 0 13.360286 0.016373 19.387559 0.013303 19.196201l-0.275269 19.205411c0 0-21.398356 6.272867-31.423687 9.67843l2.222621 10.227945c6.771217-2.14178 21.38096-6.699586 28.817326-8.948813 0.246617 2.051729 0.066515 3.582595 0.096191 4.644787 0.140193 4.938476 0.137123 9.881045 0.214894 14.821567 0.26606 16.935718-9.892301 18.844184-26.503631 19.735483-2.470261 0.132006-2.246157-0.379647-2.149966 5.088902 0.064468 3.997034-0.255827 3.357468 1.88186 3.431146 15.609513 0.538259 36.367279-0.177032 51.976792 0.270153 10.492982 0.300852 14.417361-4.454452 14.166651-14.433734l0.441045-36.500309-0.024559-11.056823 21.215184-9.281387L505.999332 596.745103z" p-id="540" fill="#1296db"></path><path d="M651.998521 665.827481c-0.403183-4.837168-0.435928-11.610432-3.427052-13.959943-8.065699-6.332219-5.715165-13.537318-3.382027-23.037692-42.48051 0-89.388866-0.073678-130.7376 0.248663l-0.127913 10.600429c4.013407 0.144286 7.475252 0.409322 11.171434 1.199315-3.836375 11.675924-7.367805 22.422685-11.561313 35.18536 10.540054 0 19.323091-0.613984 27.979238 0.166799 9.273201 0.837064 12.510942-3.607154 14.476713-11.771091 6.036483-25.072025 6.263657-25.015743 32.42448-24.963555 2.285043 0.004093 4.572132 0.025583 6.855128-0.039909 7.310499-0.211824 9.637498 3.054569 7.326872 10.003841-0.655939 1.971911-0.506537 4.211928-0.797156 7.001461 13.109576 0.290619 14.244422 9.531074 14.358009 19.709901 8.847505 0 16.842597-0.533143 24.733311 0.146333C649.562029 677.028591 652.606365 673.129794 651.998521 665.827481z" p-id="541" fill="#1296db"></path><path d="M814.546617 591.18855c-0.295735-4.069689-0.527003-7.255241-0.848321-11.6749-9.67536 0-18.60473 0-28.347628 0 0-9.958816-0.63445-18.71627 0.345877-27.288506 0.340761-2.984984 4.196579-6.615675 7.30743-7.962346 3.635807-1.573845 8.338922-2.284019 12.383028-3.354398 6.405897-1.694595 11.256368-2.6432 8.157797-10.781554-1.228991-0.251733-2.364861-0.826831-3.357468-0.639566-30.933523 5.826705-61.892629 11.531638-92.702332 17.955954-2.705622 0.563842-4.412496 5.915733-6.582929 9.04398 0.884137 0.706081 1.768273 1.413186 2.65241 2.119267 9.452279-1.245364 18.905582-2.489704 28.559453-3.761674-0.12996 24.204262-0.12996 24.205285-21.266349 25.083282-1.140986 0.047072-2.62478-0.390903-3.361561 0.168846-2.071172 1.572822-5.702885 4.173043-5.346775 5.242398 0.841158 2.520403 3.296069 5.484921 5.733585 6.251378 3.370771 1.060145 7.325849 0.26606 13.042037 0.26606-6.436596 28.753881-12.500709 55.841819-18.550495 82.867336 11.096732 3.236718 15.725146 1.2689 18.203594-9.790994 2.24411-10.013051 10.583033-39.545668 12.901845-49.583279 1.623987 0.105401-0.845251 0.211824 0.779759 0.317225 0 13.385868-2.046612 46.215578-2.046612 59.520605 16.045441 0 29.160133 0 43.533492 0 0-13.045107 0-46.682205 0-58.996672-0.470721 0.144286-0.242524 0.056282 0-0.036839 0-0.01228 0-0.026606 0-0.037862 0.523933-0.161682 0.255827-0.059352 0 0.037862 0 0.011256 0 0.024559 0 0.036839 0.00921-0.00307 0.014326-0.004093 0.023536-0.007163 1.529843 2.739391 6.715959 25.780153 7.53972 28.718065 1.842974 6.569626 3.181459 13.08911 5.347798 20.008706 3.461845 11.489682 5.984295 12.722766 17.069771 9.490142-6.17463-27.145244-12.33391-54.224995-18.664082-82.054831C803.650453 591.908958 808.750611 591.571267 814.546617 591.18855z" p-id="542" fill="#1296db"></path><path d="M948.196547 643.672902c3.311419-0.227174 6.378268-4.015454 9.55768-6.17156-3.066849-1.838881-6.052856-5.083785-9.213849-5.263887-11.310603-0.645706-22.681582-0.252757-34.817993-0.252757 0-8.30413 0-14.555507 0-22.020526 12.262278 0 23.629163-0.158612 34.988886 0.051165 8.890484 0.163729 10.639315-3.669576 7.361665-11.029194-44.094264 0-87.74032 0-131.130549 0-2.77009 8.219195-0.316202 11.387351 7.638981 11.167341 12.034081-0.331551 24.083511-0.086981 36.297694-0.086981 0 8.067746 0 14.380522 0 22.019503-12.347213 0-24.088628-0.450255-35.753295 0.290619-3.248997 0.206708-6.272867 3.940752-9.401114 6.056949 3.00852 1.846044 5.942339 5.124717 9.03784 5.284353 12.039197 0.621147 24.128537 0.252757 36.162618 0.252757 0 7.231705 0 13.104459 0 20.162202-12.595876 0-24.332175-0.36532-36.017308 0.243547-3.123131 0.162706-8.188496 2.815115-8.734942 5.166673-1.62194 6.982018 4.242627 6.433526 8.815783 6.436596 26.671453 0.017396 53.341882 0.011256 80.013335 0.01228 14.359033 0.001023 28.719088 0 43.488467 0 0-4.396123 0-7.579629 0-12.069897-14.737656 0-28.67611 0-42.998303 0 0-7.17747 0-13.024641 0-19.952424C925.536454 643.969661 936.909479 644.448568 948.196547 643.672902z" p-id="543" fill="#1296db"></path><path d="M958.901353 564.05968c-0.36839-21.536502-12.170181-34.263361-33.707706-34.19173-15.089673 0.050142-30.173207 2.400676-45.25674 3.743254-3.768837 0.335644-8.809643 2.49789-11.086499 0.836041-14.331403-10.458189-29.465079-2.143826-44.635593-4.685719 0 20.336164 0 38.873356 0 58.623165 45.373397 0 89.341794 0 134.709051 0C958.922842 579.837015 959.035406 571.9463 958.901353 564.05968zM917.460522 576.040549c-16.20303 0.799202-32.464389 0.418532-49.41648 0.418532-2.867304-27.213805-2.777253-27.323299 24.213471-31.026644 20.679995-2.837628 30.788214 3.765767 31.579229 21.649066C923.970796 570.107419 919.838685 575.922868 917.460522 576.040549z" p-id="544" fill="#1296db"></path><path d="M953.523879 397.072481c-5.426593-4.609994-13.162788-8.467859-20.113083-8.946766-20.250206-1.394766-40.629349-0.933255-60.95835-1.162476-6.002714-0.067538-12.006452-0.010233-18.778692-0.010233 0 19.425422 0 39.111786 0 59.658751 12.127202-7.164167 27.844162 5.892197 36.159548-13.492292 3.755534 0.654916 7.817036 1.505283 11.918447 2.052752 16.463973 2.199085 32.662911 1.453095 47.631834-6.494924C961.439152 422.276513 963.918623 405.903613 953.523879 397.072481zM924.766928 421.522336c-4.757351 2.49789-10.705829 2.725064-16.142655 3.930519-18.388812-1.110287-20.757766-2.945075-20.954241-15.476483-0.096191-6.142907 1.212618-10.840906 8.200776-10.803044 9.821693 0.053212 19.803022-0.124843 29.370935 1.653663 3.252067 0.604774 7.576559 6.857175 7.537673 10.486842C932.742577 414.849356 928.418085 419.60466 924.766928 421.522336z" p-id="545" fill="#1296db"></path></svg>